P3
6 3
255
    0    0    0
   47   71   31
   94  143   61
  145  194  112
  200  224  184
  255  255  255
    0    0    0
   31   47   71
   61   93  143
  112  144  194
  184  200  224
  255  255  255
    0    0    0
   71   31   46
  143   61   93
  194  112  144
  224  184  199
  255  255  255
