P3
16 6
255
    0    0    0
   16   24   10
   31   48   20
   47   71   31
   63   95   41
   78  119   51
   94  143   61
  109  167   71
  126  184   88
  145  194  112
  163  204  136
  182  214  160
  200  224  184
  218  235  207
  237  245  231
  255  255  255
    0    0    0
   10   24   18
   20   48   37
   31   71   55
   41   95   74
   51  119   92
   61  143  110
   71  167  129
   88  184  146
  112  194  161
  136  204  177
  160  214  193
  184  224  208
  207  235  224
  231  245  239
  255  255  255
    0    0    0
   10   16   24
   20   31   48
   31   47   71
   41   62   95
   51   78  119
   61   93  143
   71  109  167
   88  126  184
  112  144  194
  136  163  204
  160  181  214
  184  200  224
  207  218  235
  231  237  245
  255  255  255
    0    0    0
   19   10   24
   37   20   48
   56   31   71
   74   41   95
   93   51  119
  111   61  143
  130   71  167
  147   88  184
  162  112  194
  178  136  204
  193  160  214
  209  184  224
  224  207  235
  240  231  245
  255  255  255
    0    0    0
   24   10   15
   48   20   31
   71   31   46
   95   41   62
  119   51   77
  143   61   93
  167   71  108
  184   88  125
  194  112  144
  204  136  162
  214  160  181
  224  184  199
  235  207  218
  245  231  236
  255  255  255
    0    0    0
   24   18   10
   48   37   20
   71   55   31
   95   73   41
  119   92   51
  143  110   61
  167  128   71
  184  145   88
  194  161  112
  204  177  136
  214  192  160
  224  208  184
  235  224  207
  245  239  231
  255  255  255
