<?xml version="1.0" encoding="UTF-8" standalone="no"?>
<svg
   xmlns:dc="http://purl.org/dc/elements/1.1/"
   xmlns:cc="http://creativecommons.org/ns#"
   xmlns:rdf="http://www.w3.org/1999/02/22-rdf-syntax-ns#"
   xmlns:svg="http://www.w3.org/2000/svg"
   xmlns="http://www.w3.org/2000/svg"
   xmlns:xlink="http://www.w3.org/1999/xlink"
   xmlns:sodipodi="http://sodipodi.sourceforge.net/DTD/sodipodi-0.dtd"
   xmlns:inkscape="http://www.inkscape.org/namespaces/inkscape"
   width="216"
   height="216"
   viewBox="0 0 216 216"
   version="1.1"
   id="svg"
   inkscape:version="0.92.3 (2405546, 2018-03-11)"
   sodipodi:docname="logo.svg"
   inkscape:export-filename="logo.png"
   inkscape:export-xdpi="480"
   inkscape:export-ydpi="480">
  <title
     id="title">Hacklab Jyväskylä Logo</title>
  <defs
     id="defs" />
  <sodipodi:namedview
     id="base"
     pagecolor="#ffffff"
     bordercolor="#666666"
     borderopacity="1"
     inkscape:pageopacity="0"
     inkscape:pageshadow="2"
     inkscape:zoom="3"
     inkscape:cx="108"
     inkscape:cy="108"
     inkscape:document-units="px"
     inkscape:current-layer="layer"
     showgrid="true"
     units="px"
     inkscape:snap-global="true"
     inkscape:window-width="1200"
     inkscape:window-height="900"
     inkscape:window-x="0"
     inkscape:window-y="0"
     inkscape:window-maximized="1">
    <inkscape:grid
       type="xygrid"
       id="grid"
       empspacing="2"
       spacingx="4"
       spacingy="4" />
  </sodipodi:namedview>
  <metadata
     id="metadata">
    <rdf:RDF>
      <cc:Work
         rdf:about="">
        <dc:format>image/svg+xml</dc:format>
        <dc:type
           rdf:resource="http://purl.org/dc/dcmitype/StillImage" />
        <dc:title>Hacklab Jyväskylä Logo</dc:title>
        <cc:license
           rdf:resource="http://creativecommons.org/licenses/by-sa/4.0/" />
        <dc:date>2021-11-16</dc:date>
        <dc:creator>
          <cc:Agent>
            <dc:title>Sampsa Kiiskinen</dc:title>
          </cc:Agent>
        </dc:creator>
        <dc:contributor>
          <cc:Agent>
            <dc:title>Members of Hacklab Jyväskylä</dc:title>
          </cc:Agent>
        </dc:contributor>
        <dc:description>This file was written by hand and previewed with Inkscape. The fractions in the source code approximate dynamic offsets.</dc:description>
      </cc:Work>
      <cc:License
         rdf:about="http://creativecommons.org/licenses/by-sa/4.0/">
        <cc:permits
           rdf:resource="http://creativecommons.org/ns#Reproduction" />
        <cc:permits
           rdf:resource="http://creativecommons.org/ns#Distribution" />
        <cc:requires
           rdf:resource="http://creativecommons.org/ns#Notice" />
        <cc:requires
           rdf:resource="http://creativecommons.org/ns#Attribution" />
        <cc:permits
           rdf:resource="http://creativecommons.org/ns#DerivativeWorks" />
        <cc:requires
           rdf:resource="http://creativecommons.org/ns#ShareAlike" />
      </cc:License>
    </rdf:RDF>
  </metadata>
  <g
     inkscape:label="Layer"
     inkscape:groupmode="layer"
     id="layer">
    <g
       id="vectors">
      <path
         id="panel"
         d="M 6,30 V 186 H 210 V 30 Z"
         sodipodi:type="inkscape:offset"
         inkscape:radius="-2"
         inkscape:original="M 4,188 H 212 V 28 H 4 Z"
         style="fill:#000000;fill-opacity:1;fill-rule:evenodd;stroke:#000000;stroke-width:4;stroke-linecap:round;stroke-linejoin:round;stroke-opacity:1" />
      <path
         id="frame"
         d="M 2,26 V 190 H 214 V 26 Z M 8,30 H 208 A 2,2 0 0 1 210,32 V 184 A 2,2 0 0 1 208,186 H 8 A 2,2 0 0 1 6,184 V 32 A 2,2 0 0 1 8,30 Z"
         sodipodi:type="inkscape:offset"
         inkscape:radius="-2"
         inkscape:original="M 8,184 V 32 H 208 V 184 Z M 0,192 H 216 V 24 H 0 Z"
         style="fill:#1f3014;fill-opacity:1;fill-rule:evenodd;stroke:#1f3014;stroke-width:4;stroke-linecap:round;stroke-linejoin:round;stroke-opacity:1" />
      <g
         id="segments">
        <path
           id="row-0-column-0-segments"
           d="M 18,42 V 78 H 54 V 42 Z M 29.66,46 H 42.34 A 2,2 0 0 1 43.76,49.41 L 37.41,55.76 A 2,2 0 0 1 34.59,55.76 L 28.24,49.41 A 2,2 0 0 1 29.66,46 Z M 24.06,51.66 A 2,2 0 0 1 25.41,52.24 L 27.76,54.59 A 2,2 0 0 1 26.34,58 H 24 A 2,2 0 0 1 22,56 V 53.66 A 2,2 0 0 1 24.06,51.66 Z M 48.03,51.66 A 2,2 0 0 1 50,53.66 V 56 A 2,2 0 0 1 48,58 H 45.66 A 2,2 0 0 1 44.24,54.59 L 46.59,52.24 A 2,2 0 0 1 48.03,51.66 Z M 24,62 H 26.34 A 2,2 0 0 1 27.76,65.41 L 25.41,67.76 A 2,2 0 0 1 22,66.34 V 64 A 2,2 0 0 1 24,62 Z M 45.66,62 H 48 A 2,2 0 0 1 50,64 V 66.34 A 2,2 0 0 1 46.59,67.76 L 44.24,65.41 A 2,2 0 0 1 45.66,62 Z M 36.03,63.66 A 2,2 0 0 1 37.41,64.24 L 43.76,70.59 A 2,2 0 0 1 42.34,74 H 29.66 A 2,2 0 0 1 28.24,70.59 L 34.59,64.24 A 2,2 0 0 1 36.03,63.66 Z"
           sodipodi:type="inkscape:offset"
           inkscape:radius="-2"
           inkscape:original="M 16,80 H 56 V 40 H 16 Z M 29.6568542494923806,72 36,65.6568542494923806 42.3431457505076194,72 Z M 48,66.3431457505076194 45.6568542494923806,64 H 48 Z M 48,56 H 45.6568542494923806 L 48,53.6568542494923806 Z M 42.3431457505076194,48 36,54.3431457505076194 29.6568542494923806,48 Z M 24,53.6568542494923806 26.3431457505076194,56 H 24 Z M 24,64 H 26.3431457505076194 L 24,66.3431457505076194 Z"
           style="fill:#1f3014;fill-opacity:1;fill-rule:evenodd;stroke:#1f3014;stroke-width:4;stroke-linecap:round;stroke-linejoin:round;stroke-opacity:1" />
        <path
           id="row-0-column-1-segments"
           d="M 66,42 V 78 H 102 V 42 Z M 77.66,46 H 90.34 A 2,2 0 0 1 91.76,49.41 L 85.41,55.76 A 2,2 0 0 1 82.59,55.76 L 76.24,49.41 A 2,2 0 0 1 77.66,46 Z M 72.06,51.66 A 2,2 0 0 1 73.41,52.24 L 75.76,54.59 A 2,2 0 0 1 74.34,58 H 72 A 2,2 0 0 1 70,56 V 53.66 A 2,2 0 0 1 72.06,51.66 Z M 96.03,51.66 A 2,2 0 0 1 98,53.66 V 56 A 2,2 0 0 1 96,58 H 93.66 A 2,2 0 0 1 92.24,54.59 L 94.59,52.24 A 2,2 0 0 1 96.03,51.66 Z M 72,62 H 74.34 A 2,2 0 0 1 75.76,65.41 L 73.41,67.76 A 2,2 0 0 1 70,66.34 V 64 A 2,2 0 0 1 72,62 Z M 93.66,62 H 96 A 2,2 0 0 1 98,64 V 66.34 A 2,2 0 0 1 94.59,67.76 L 92.24,65.41 A 2,2 0 0 1 93.66,62 Z M 84.03,63.66 A 2,2 0 0 1 85.41,64.24 L 91.76,70.59 A 2,2 0 0 1 90.34,74 H 77.66 A 2,2 0 0 1 76.24,70.59 L 82.59,64.24 A 2,2 0 0 1 84.03,63.66 Z"
           sodipodi:type="inkscape:offset"
           inkscape:radius="-2"
           inkscape:original="M 64,80 H 104 V 40 H 64 Z M 77.6568542494923806,72 84,65.6568542494923806 90.3431457505076194,72 Z M 96,66.3431457505076194 93.6568542494923806,64 H 96 Z M 96,56 H 93.6568542494923806 L 96,53.6568542494923806 Z M 90.3431457505076194,48 84,54.3431457505076194 77.6568542494923806,48 Z M 72,53.6568542494923806 74.3431457505076194,56 H 72 Z M 72,64 H 74.3431457505076194 L 72,66.3431457505076194 Z"
           style="fill:#1f3014;fill-opacity:1;fill-rule:evenodd;stroke:#1f3014;stroke-width:4;stroke-linecap:round;stroke-linejoin:round;stroke-opacity:1" />
        <path
           id="row-0-column-2-segments"
           d="M 114,42 V 78 H 150 V 42 Z M 125.66,46 H 138.34 A 2,2 0 0 1 139.76,49.41 L 133.41,55.76 A 2,2 0 0 1 130.59,55.76 L 124.24,49.41 A 2,2 0 0 1 125.66,46 Z M 120.06,51.66 A 2,2 0 0 1 121.41,52.24 L 123.76,54.59 A 2,2 0 0 1 122.34,58 H 120 A 2,2 0 0 1 118,56 V 53.66 A 2,2 0 0 1 120.06,51.66 Z M 144.03,51.66 A 2,2 0 0 1 146,53.66 V 56 A 2,2 0 0 1 144,58 H 141.66 A 2,2 0 0 1 140.24,54.59 L 142.59,52.24 A 2,2 0 0 1 144.03,51.66 Z M 120,62 H 122.34 A 2,2 0 0 1 123.76,65.41 L 121.41,67.76 A 2,2 0 0 1 118,66.34 V 64 A 2,2 0 0 1 120,62 Z M 141.66,62 H 144 A 2,2 0 0 1 146,64 V 66.34 A 2,2 0 0 1 142.59,67.76 L 140.24,65.41 A 2,2 0 0 1 141.66,62 Z M 132.03,63.66 A 2,2 0 0 1 133.41,64.24 L 139.76,70.59 A 2,2 0 0 1 138.34,74 H 125.66 A 2,2 0 0 1 124.24,70.59 L 130.59,64.24 A 2,2 0 0 1 132.03,63.66 Z"
           sodipodi:type="inkscape:offset"
           inkscape:radius="-2"
           inkscape:original="M 112,80 H 152 V 40 H 112 Z M 125.6568542494923806,72 132,65.6568542494923806 138.3431457505076194,72 Z M 144,66.3431457505076194 141.6568542494923806,64 H 144 Z M 144,56 H 141.6568542494923806 L 144,53.6568542494923806 Z M 138.3431457505076194,48 132,54.3431457505076194 125.6568542494923806,48 Z M 120,53.6568542494923806 122.3431457505076194,56 H 120 Z M 120,64 H 122.3431457505076194 L 120,66.3431457505076194 Z"
           style="fill:#1f3014;fill-opacity:1;fill-rule:evenodd;stroke:#1f3014;stroke-width:4;stroke-linecap:round;stroke-linejoin:round;stroke-opacity:1" />
        <path
           id="row-0-column-3-segments"
           d="M 162,42 V 78 H 198 V 42 Z M 173.66,46 H 186.34 A 2,2 0 0 1 187.76,49.41 L 181.41,55.76 A 2,2 0 0 1 178.59,55.76 L 172.24,49.41 A 2,2 0 0 1 173.66,46 Z M 168.06,51.66 A 2,2 0 0 1 169.41,52.24 L 171.76,54.59 A 2,2 0 0 1 170.34,58 H 168 A 2,2 0 0 1 166,56 V 53.66 A 2,2 0 0 1 168.06,51.66 Z M 192.03,51.66 A 2,2 0 0 1 194,53.66 V 56 A 2,2 0 0 1 192,58 H 189.66 A 2,2 0 0 1 188.24,54.59 L 190.59,52.24 A 2,2 0 0 1 192.03,51.66 Z M 168,62 H 170.34 A 2,2 0 0 1 171.76,65.41 L 169.41,67.76 A 2,2 0 0 1 166,66.34 V 64 A 2,2 0 0 1 168,62 Z M 189.66,62 H 192 A 2,2 0 0 1 194,64 V 66.34 A 2,2 0 0 1 190.59,67.76 L 188.24,65.41 A 2,2 0 0 1 189.66,62 Z M 180.03,63.66 A 2,2 0 0 1 181.41,64.24 L 187.76,70.59 A 2,2 0 0 1 186.34,74 H 173.66 A 2,2 0 0 1 172.24,70.59 L 178.59,64.24 A 2,2 0 0 1 180.03,63.66 Z"
           sodipodi:type="inkscape:offset"
           inkscape:radius="-2"
           inkscape:original="M 160,80 H 200 V 40 H 160 Z M 173.6568542494923806,72 180,65.6568542494923806 186.3431457505076194,72 Z M 192,66.3431457505076194 189.6568542494923806,64 H 192 Z M 192,56 H 189.6568542494923806 L 192,53.6568542494923806 Z M 186.3431457505076194,48 180,54.3431457505076194 173.6568542494923806,48 Z M 168,53.6568542494923806 170.3431457505076194,56 H 168 Z M 168,64 H 170.3431457505076194 L 168,66.3431457505076194 Z"
           style="fill:#1f3014;fill-opacity:1;fill-rule:evenodd;stroke:#1f3014;stroke-width:4;stroke-linecap:round;stroke-linejoin:round;stroke-opacity:1" />
        <path
           id="row-1-column-0-segments"
           d="M 18,90 V 126 H 54 V 90 Z M 29.66,94 H 42.34 A 2,2 0 0 1 43.76,97.41 L 37.41,103.76 A 2,2 0 0 1 34.59,103.76 L 28.24,97.41 A 2,2 0 0 1 29.66,94 Z M 24.06,99.66 A 2,2 0 0 1 25.41,100.24 L 27.76,102.59 A 2,2 0 0 1 26.34,106 H 24 A 2,2 0 0 1 22,104 V 101.66 A 2,2 0 0 1 24.06,99.66 Z M 48.03,99.66 A 2,2 0 0 1 50,101.66 V 104 A 2,2 0 0 1 48,106 H 45.66 A 2,2 0 0 1 44.24,102.59 L 46.59,100.24 A 2,2 0 0 1 48.03,99.66 Z M 24,110 H 26.34 A 2,2 0 0 1 27.76,113.41 L 25.41,115.76 A 2,2 0 0 1 22,114.34 V 112 A 2,2 0 0 1 24,110 Z M 45.66,110 H 48 A 2,2 0 0 1 50,112 V 114.34 A 2,2 0 0 1 46.59,115.76 L 44.24,113.41 A 2,2 0 0 1 45.66,110 Z M 36.03,111.66 A 2,2 0 0 1 37.41,112.24 L 43.76,118.59 A 2,2 0 0 1 42.34,122 H 29.66 A 2,2 0 0 1 28.24,118.59 L 34.59,112.24 A 2,2 0 0 1 36.03,111.66 Z"
           sodipodi:type="inkscape:offset"
           inkscape:radius="-2"
           inkscape:original="M 16,128 H 56 V 88 H 16 Z M 29.6568542494923806,120 36,113.6568542494923806 42.3431457505076194,120 Z M 48,114.3431457505076194 45.6568542494923806,112 H 48 Z M 48,104 H 45.6568542494923806 L 48,101.6568542494923806 Z M 42.3431457505076194,96 36,102.3431457505076194 29.6568542494923806,96 Z M 24,101.6568542494923806 26.3431457505076194,104 H 24 Z M 24,112 H 26.3431457505076194 L 24,114.3431457505076194 Z"
           style="fill:#1f3014;fill-opacity:1;fill-rule:evenodd;stroke:#1f3014;stroke-width:4;stroke-linecap:round;stroke-linejoin:round;stroke-opacity:1" />
        <path
           id="row-1-column-1-segments"
           d="M 66,90 V 126 H 102 V 90 Z M 77.66,94 H 90.34 A 2,2 0 0 1 91.76,97.41 L 85.41,103.76 A 2,2 0 0 1 82.59,103.76 L 76.24,97.41 A 2,2 0 0 1 77.66,94 Z M 72.06,99.66 A 2,2 0 0 1 73.41,100.24 L 75.76,102.59 A 2,2 0 0 1 74.34,106 H 72 A 2,2 0 0 1 70,104 V 101.66 A 2,2 0 0 1 72.06,99.66 Z M 96.03,99.66 A 2,2 0 0 1 98,101.66 V 104 A 2,2 0 0 1 96,106 H 93.66 A 2,2 0 0 1 92.24,102.59 L 94.59,100.24 A 2,2 0 0 1 96.03,99.66 Z M 72,110 H 74.34 A 2,2 0 0 1 75.76,113.41 L 73.41,115.76 A 2,2 0 0 1 70,114.34 V 112 A 2,2 0 0 1 72,110 Z M 93.66,110 H 96 A 2,2 0 0 1 98,112 V 114.34 A 2,2 0 0 1 94.59,115.76 L 92.24,113.41 A 2,2 0 0 1 93.66,110 Z M 84.03,111.66 A 2,2 0 0 1 85.41,112.24 L 91.76,118.59 A 2,2 0 0 1 90.34,122 H 77.66 A 2,2 0 0 1 76.24,118.59 L 82.59,112.24 A 2,2 0 0 1 84.03,111.66 Z"
           sodipodi:type="inkscape:offset"
           inkscape:radius="-2"
           inkscape:original="M 64,128 H 104 V 88 H 64 Z M 77.6568542494923806,120 84,113.6568542494923806 90.3431457505076194,120 Z M 96,114.3431457505076194 93.6568542494923806,112 H 96 Z M 96,104 H 93.6568542494923806 L 96,101.6568542494923806 Z M 90.3431457505076194,96 84,102.3431457505076194 77.6568542494923806,96 Z M 72,101.6568542494923806 74.3431457505076194,104 H 72 Z M 72,112 H 74.3431457505076194 L 72,114.3431457505076194 Z"
           style="fill:#1f3014;fill-opacity:1;fill-rule:evenodd;stroke:#1f3014;stroke-width:4;stroke-linecap:round;stroke-linejoin:round;stroke-opacity:1" />
        <path
           id="row-1-column-2-segments"
           d="M 114,90 V 126 H 150 V 90 Z M 125.66,94 H 138.34 A 2,2 0 0 1 139.76,97.41 L 133.41,103.76 A 2,2 0 0 1 130.59,103.76 L 124.24,97.41 A 2,2 0 0 1 125.66,94 Z M 120.06,99.66 A 2,2 0 0 1 121.41,100.24 L 123.76,102.59 A 2,2 0 0 1 122.34,106 H 120 A 2,2 0 0 1 118,104 V 101.66 A 2,2 0 0 1 120.06,99.66 Z M 144.03,99.66 A 2,2 0 0 1 146,101.66 V 104 A 2,2 0 0 1 144,106 H 141.66 A 2,2 0 0 1 140.24,102.59 L 142.59,100.24 A 2,2 0 0 1 144.03,99.66 Z M 120,110 H 122.34 A 2,2 0 0 1 123.76,113.41 L 121.41,115.76 A 2,2 0 0 1 118,114.34 V 112 A 2,2 0 0 1 120,110 Z M 141.66,110 H 144 A 2,2 0 0 1 146,112 V 114.34 A 2,2 0 0 1 142.59,115.76 L 140.24,113.41 A 2,2 0 0 1 141.66,110 Z M 132.03,111.66 A 2,2 0 0 1 133.41,112.24 L 139.76,118.59 A 2,2 0 0 1 138.34,122 H 125.66 A 2,2 0 0 1 124.24,118.59 L 130.59,112.24 A 2,2 0 0 1 132.03,111.66 Z"
           sodipodi:type="inkscape:offset"
           inkscape:radius="-2"
           inkscape:original="M 112,128 H 152 V 88 H 112 Z M 125.6568542494923806,120 132,113.6568542494923806 138.3431457505076194,120 Z M 144,114.3431457505076194 141.6568542494923806,112 H 144 Z M 144,104 H 141.6568542494923806 L 144,101.6568542494923806 Z M 138.3431457505076194,96 132,102.3431457505076194 125.6568542494923806,96 Z M 120,101.6568542494923806 122.3431457505076194,104 H 120 Z M 120,112 H 122.3431457505076194 L 120,114.3431457505076194 Z"
           style="fill:#1f3014;fill-opacity:1;fill-rule:evenodd;stroke:#1f3014;stroke-width:4;stroke-linecap:round;stroke-linejoin:round;stroke-opacity:1" />
        <path
           id="row-2-column-0-segments"
           d="M 18,138 V 174 H 54 V 138 Z M 29.66,142 H 42.34 A 2,2 0 0 1 43.76,145.41 L 37.41,151.76 A 2,2 0 0 1 34.59,151.76 L 28.24,145.41 A 2,2 0 0 1 29.66,142 Z M 24.06,147.66 A 2,2 0 0 1 25.41,148.24 L 27.76,150.59 A 2,2 0 0 1 26.34,154 H 24 A 2,2 0 0 1 22,152 V 149.66 A 2,2 0 0 1 24.06,147.66 Z M 48.03,147.66 A 2,2 0 0 1 50,149.66 V 152 A 2,2 0 0 1 48,154 H 45.66 A 2,2 0 0 1 44.24,150.59 L 46.59,148.24 A 2,2 0 0 1 48.03,147.66 Z M 24,158 H 26.34 A 2,2 0 0 1 27.76,161.41 L 25.41,163.76 A 2,2 0 0 1 22,162.34 V 160 A 2,2 0 0 1 24,158 Z M 45.66,158 H 48 A 2,2 0 0 1 50,160 V 162.34 A 2,2 0 0 1 46.59,163.76 L 44.24,161.41 A 2,2 0 0 1 45.66,158 Z M 36.03,159.66 A 2,2 0 0 1 37.41,160.24 L 43.76,166.59 A 2,2 0 0 1 42.34,170 H 29.66 A 2,2 0 0 1 28.24,166.59 L 34.59,160.24 A 2,2 0 0 1 36.03,159.66 Z"
           sodipodi:type="inkscape:offset"
           inkscape:radius="-2"
           inkscape:original="M 16,176 H 56 V 136 H 16 Z M 29.6568542494923806,168 36,161.6568542494923806 42.3431457505076194,168 Z M 48,162.3431457505076194 45.6568542494923806,160 H 48 Z M 48,152 H 45.6568542494923806 L 48,149.6568542494923806 Z M 42.3431457505076194,144 36,150.3431457505076194 29.6568542494923806,144 Z M 24,149.6568542494923806 26.3431457505076194,152 H 24 Z M 24,160 H 26.3431457505076194 L 24,162.3431457505076194 Z"
           style="fill:#1f3014;fill-opacity:1;fill-rule:evenodd;stroke:#1f3014;stroke-width:4;stroke-linecap:round;stroke-linejoin:round;stroke-opacity:1" />
        <path
           id="row-2-column-1-segments"
           d="M 66,138 V 174 H 102 V 138 Z M 77.66,142 H 90.34 A 2,2 0 0 1 91.76,145.41 L 85.41,151.76 A 2,2 0 0 1 82.59,151.76 L 76.24,145.41 A 2,2 0 0 1 77.66,142 Z M 72.06,147.66 A 2,2 0 0 1 73.41,148.24 L 75.76,150.59 A 2,2 0 0 1 74.34,154 H 72 A 2,2 0 0 1 70,152 V 149.66 A 2,2 0 0 1 72.06,147.66 Z M 96.03,147.66 A 2,2 0 0 1 98,149.66 V 152 A 2,2 0 0 1 96,154 H 93.66 A 2,2 0 0 1 92.24,150.59 L 94.59,148.24 A 2,2 0 0 1 96.03,147.66 Z M 72,158 H 74.34 A 2,2 0 0 1 75.76,161.41 L 73.41,163.76 A 2,2 0 0 1 70,162.34 V 160 A 2,2 0 0 1 72,158 Z M 93.66,158 H 96 A 2,2 0 0 1 98,160 V 162.34 A 2,2 0 0 1 94.59,163.76 L 92.24,161.41 A 2,2 0 0 1 93.66,158 Z M 84.03,159.66 A 2,2 0 0 1 85.41,160.24 L 91.76,166.59 A 2,2 0 0 1 90.34,170 H 77.66 A 2,2 0 0 1 76.24,166.59 L 82.59,160.24 A 2,2 0 0 1 84.03,159.66 Z"
           sodipodi:type="inkscape:offset"
           inkscape:radius="-2"
           inkscape:original="M 64,176 H 104 V 136 H 64 Z M 77.6568542494923806,168 84,161.6568542494923806 90.3431457505076194,168 Z M 96,162.3431457505076194 93.6568542494923806,160 H 96 Z M 96,152 H 93.6568542494923806 L 96,149.6568542494923806 Z M 90.3431457505076194,144 84,150.3431457505076194 77.6568542494923806,144 Z M 72,149.6568542494923806 74.3431457505076194,152 H 72 Z M 72,160 H 74.3431457505076194 L 72,162.3431457505076194 Z"
           style="fill:#1f3014;fill-opacity:1;fill-rule:evenodd;stroke:#1f3014;stroke-width:4;stroke-linecap:round;stroke-linejoin:round;stroke-opacity:1" />
        <path
           id="row-2-column-2-segments"
           d="M 114,138 V 174 H 150 V 138 Z M 125.66,142 H 138.34 A 2,2 0 0 1 139.76,145.41 L 133.41,151.76 A 2,2 0 0 1 130.59,151.76 L 124.24,145.41 A 2,2 0 0 1 125.66,142 Z M 120.06,147.66 A 2,2 0 0 1 121.41,148.24 L 123.76,150.59 A 2,2 0 0 1 122.34,154 H 120 A 2,2 0 0 1 118,152 V 149.66 A 2,2 0 0 1 120.06,147.66 Z M 144.03,147.66 A 2,2 0 0 1 146,149.66 V 152 A 2,2 0 0 1 144,154 H 141.66 A 2,2 0 0 1 140.24,150.59 L 142.59,148.24 A 2,2 0 0 1 144.03,147.66 Z M 120,158 H 122.34 A 2,2 0 0 1 123.76,161.41 L 121.41,163.76 A 2,2 0 0 1 118,162.34 V 160 A 2,2 0 0 1 120,158 Z M 141.66,158 H 144 A 2,2 0 0 1 146,160 V 162.34 A 2,2 0 0 1 142.59,163.76 L 140.24,161.41 A 2,2 0 0 1 141.66,158 Z M 132.03,159.66 A 2,2 0 0 1 133.41,160.24 L 139.76,166.59 A 2,2 0 0 1 138.34,170 H 125.66 A 2,2 0 0 1 124.24,166.59 L 130.59,160.24 A 2,2 0 0 1 132.03,159.66 Z"
           sodipodi:type="inkscape:offset"
           inkscape:radius="-2"
           inkscape:original="M 112,176 H 152 V 136 H 112 Z M 125.6568542494923806,168 132,161.6568542494923806 138.3431457505076194,168 Z M 144,162.3431457505076194 141.6568542494923806,160 H 144 Z M 144,152 H 141.6568542494923806 L 144,149.6568542494923806 Z M 138.3431457505076194,144 132,150.3431457505076194 125.6568542494923806,144 Z M 120,149.6568542494923806 122.3431457505076194,152 H 120 Z M 120,160 H 122.3431457505076194 L 120,162.3431457505076194 Z"
           style="fill:#1f3014;fill-opacity:1;fill-rule:evenodd;stroke:#1f3014;stroke-width:4;stroke-linecap:round;stroke-linejoin:round;stroke-opacity:1" />
        <path
           id="row-1-column-3-subcolumn-0-segments"
           d="M 161,89 V 127 H 163 V 89 Z"
           sodipodi:type="inkscape:offset"
           inkscape:radius="-1"
           inkscape:original="M 160,128 H 164 V 88 H 160 Z"
           style="fill:#1f3014;fill-opacity:1;fill-rule:evenodd;stroke:#1f3014;stroke-width:2;stroke-linecap:round;stroke-linejoin:round;stroke-opacity:1" />
        <path
           id="row-1-column-3-subcolumn-1-subrow-0-segments"
           d="M 173,89 V 103 H 199 V 89 Z M 176,91 H 184 A 1,1 0 0 1 185,92 V 100 A 1,1 0 0 1 184,101 H 176 A 1,1 0 0 1 175,100 V 92 A 1,1 0 0 1 176,91 Z M 188,91 H 196 A 1,1 0 0 1 197,92 V 100 A 1,1 0 0 1 196,101 H 188 A 1,1 0 0 1 187,100 V 92 A 1,1 0 0 1 188,91 Z"
           sodipodi:type="inkscape:offset"
           inkscape:radius="-1"
           inkscape:original="M 172,88 V 104 H 200 V 88 Z M 176,92 H 184 V 100 H 176 Z M 188,92 H 196 V 100 H 188 Z"
           style="fill:#1f3014;fill-opacity:1;fill-rule:evenodd;stroke:#1f3014;stroke-width:2;stroke-linecap:round;stroke-linejoin:round;stroke-opacity:1" />
        <path
           id="row-1-column-3-subcolumn-1-subrow-1-segments"
           d="M 173,113 V 127 H 199 V 113 Z M 176,115 H 184 A 1,1 0 0 1 185,116 V 124 A 1,1 0 0 1 184,125 H 176 A 1,1 0 0 1 175,124 V 116 A 1,1 0 0 1 176,115 Z M 188,115 H 196 A 1,1 0 0 1 197,116 V 124 A 1,1 0 0 1 196,125 H 188 A 1,1 0 0 1 187,124 V 116 A 1,1 0 0 1 188,115 Z"
           sodipodi:type="inkscape:offset"
           inkscape:radius="-1"
           inkscape:original="M 172,112 V 128 H 200 V 112 Z M 176,116 H 184 V 124 H 176 Z M 188,116 H 196 V 124 H 188 Z"
           style="fill:#1f3014;fill-opacity:1;fill-rule:evenodd;stroke:#1f3014;stroke-width:2;stroke-linecap:round;stroke-linejoin:round;stroke-opacity:1" />
        <path
           id="row-2-column-3-subcolumn-0-segments"
           d="M 161,137 V 175 H 163 V 137 Z"
           sodipodi:type="inkscape:offset"
           inkscape:radius="-1"
           inkscape:original="M 160,176 H 164 V 136 H 160 Z"
           style="fill:#1f3014;fill-opacity:1;fill-rule:evenodd;stroke:#1f3014;stroke-width:2;stroke-linecap:round;stroke-linejoin:round;stroke-opacity:1" />
        <path
           id="row-2-column-3-subcolumn-1-subrow-0-segments"
           d="M 173,137 V 151 H 199 V 137 Z M 176,139 H 184 A 1,1 0 0 1 185,140 V 148 A 1,1 0 0 1 184,149 H 176 A 1,1 0 0 1 175,148 V 140 A 1,1 0 0 1 176,139 Z M 188,139 H 196 A 1,1 0 0 1 197,140 V 148 A 1,1 0 0 1 196,149 H 188 A 1,1 0 0 1 187,148 V 140 A 1,1 0 0 1 188,139 Z"
           sodipodi:type="inkscape:offset"
           inkscape:radius="-1"
           inkscape:original="M 172,136 V 152 H 200 V 136 Z M 176,140 H 184 V 148 H 176 Z M 188,140 H 196 V 148 H 188 Z"
           style="fill:#1f3014;fill-opacity:1;fill-rule:evenodd;stroke:#1f3014;stroke-width:2;stroke-linecap:round;stroke-linejoin:round;stroke-opacity:1" />
        <path
           id="row-2-column-3-subcolumn-1-subrow-1-segments"
           d="M 173,161 V 175 H 199 V 161 Z M 176,163 H 184 A 1,1 0 0 1 185,164 V 172 A 1,1 0 0 1 184,173 H 176 A 1,1 0 0 1 175,172 V 164 A 1,1 0 0 1 176,163 Z M 188,163 H 196 A 1,1 0 0 1 197,164 V 172 A 1,1 0 0 1 196,173 H 188 A 1,1 0 0 1 187,172 V 164 A 1,1 0 0 1 188,163 Z"
           sodipodi:type="inkscape:offset"
           inkscape:radius="-1"
           inkscape:original="M 172,160 V 176 H 200 V 160 Z M 176,164 H 184 V 172 H 176 Z M 188,164 H 196 V 172 H 188 Z"
           style="fill:#1f3014;fill-opacity:1;fill-rule:evenodd;stroke:#1f3014;stroke-width:2;stroke-linecap:round;stroke-linejoin:round;stroke-opacity:1" />
      </g>
      <g
         id="lights">
        <path
           id="row-0-column-0"
           d="M 18,42 V 78 H 22 V 64 A 2,2 0 0 1 24,62 H 48 A 2,2 0 0 1 50,64 V 78 H 54 V 42 H 50 V 56 A 2,2 0 0 1 48,58 H 24 A 2,2 0 0 1 22,56 V 42 Z"
           sodipodi:type="inkscape:offset"
           inkscape:radius="-2"
           inkscape:original="M 16,80 H 24 V 64 H 48 V 80 H 56 V 40 H 48 V 56 H 24 V 40 H 16 Z"
           style="fill:#91c270;fill-opacity:1;fill-rule:evenodd;stroke:#91c270;stroke-width:4;stroke-linecap:round;stroke-linejoin:round;stroke-opacity:1" />
        <path
           id="row-0-column-1"
           d="M 66,42 V 78 H 70 V 64 A 2,2 0 0 1 72,62 H 96 A 2,2 0 0 1 98,64 V 78 H 102 V 42 Z M 72,46 H 96 A 2,2 0 0 1 98,48 V 56 A 2,2 0 0 1 96,58 H 72 A 2,2 0 0 1 70,56 V 48 A 2,2 0 0 1 72,46 Z"
           sodipodi:type="inkscape:offset"
           inkscape:radius="-2"
           inkscape:original="M 64,80 H 72 V 64 H 96 V 80 H 104 V 40 H 64 Z M 72,56 V 48 H 96 V 56 Z"
           style="fill:#daebcf;fill-opacity:1;fill-rule:evenodd;stroke:#daebcf;stroke-width:4;stroke-linecap:round;stroke-linejoin:round;stroke-opacity:1" />
        <path
           id="row-0-column-2"
           d="M 114,42 V 78 H 150 V 74 H 120 A 2,2 0 0 1 118,72 V 48 A 2,2 0 0 1 120,46 H 150 V 42 Z"
           sodipodi:type="inkscape:offset"
           inkscape:radius="-2"
           inkscape:original="M 112,80 H 152 V 72 H 120 V 48 H 152 V 40 H 112 Z"
           style="fill:#91c270;fill-opacity:1;fill-rule:evenodd;stroke:#91c270;stroke-width:4;stroke-linecap:round;stroke-linejoin:round;stroke-opacity:1" />
        <path
           id="row-0-column-3"
           d="M 162,78 H 166 V 77.66 C 166,77.13 166.21,76.62 166.59,76.24 L 178.59,64.24 C 179.37,63.46 180.63,63.46 181.41,64.24 L 195.17,78 H 198 V 75.17 L 184.24,61.41 C 183.46,60.63 183.46,59.37 184.24,58.59 L 198,44.83 V 42 H 195.17 L 169.41,67.76 C 168.15,69.02 166,68.13 166,66.34 V 42 H 162 Z"
           sodipodi:type="inkscape:offset"
           inkscape:radius="-2"
           inkscape:original="M 160,80 H 168 V 77.6568542494923806 L 180,65.6568542494923806 194.3431457505076194,80 H 200 V 74.3431457505076194 L 185.6568542494923806,60 200,45.6568542494923806 V 40 H 194.3431457505076194 L 168,66.3431457505076194 V 40 H 160 Z"
           style="fill:#91c270;fill-opacity:1;fill-rule:evenodd;stroke:#91c270;stroke-width:4;stroke-linecap:round;stroke-linejoin:round;stroke-opacity:1" />
        <path
           id="row-1-column-0"
           d="M 18,90 V 126 H 54 V 122 H 24 A 2,2 0 0 1 22,120 V 90 Z"
           sodipodi:type="inkscape:offset"
           inkscape:radius="-2"
           inkscape:original="M 16,128 H 56 V 120 H 24 V 88 H 16 Z"
           style="fill:#91c270;fill-opacity:1;fill-rule:evenodd;stroke:#91c270;stroke-width:4;stroke-linecap:round;stroke-linejoin:round;stroke-opacity:1" />
        <path
           id="row-1-column-1"
           d="M 66,90 V 126 H 70 V 112 A 2,2 0 0 1 72,110 H 96 A 2,2 0 0 1 98,112 V 126 H 102 V 90 Z M 72,94 H 96 A 2,2 0 0 1 98,96 V 104 A 2,2 0 0 1 96,106 H 72 A 2,2 0 0 1 70,104 V 96 A 2,2 0 0 1 72,94 Z"
           sodipodi:type="inkscape:offset"
           inkscape:radius="-2"
           inkscape:original="M 64,128 H 72 V 112 H 96 V 128 H 104 V 88 H 64 Z M 72,104 V 96 H 96 V 104 Z"
           style="fill:#91c270;fill-opacity:1;fill-rule:evenodd;stroke:#91c270;stroke-width:4;stroke-linecap:round;stroke-linejoin:round;stroke-opacity:1" />
        <path
           id="row-1-column-2"
           d="M 114,90 V 126 H 150 V 90 Z M 120,94 H 144 A 2,2 0 0 1 146,96 V 104 A 2,2 0 0 1 144,106 H 120 A 2,2 0 0 1 118,104 V 96 A 2,2 0 0 1 120,94 Z M 120,110 H 144 A 2,2 0 0 1 146,112 V 120 A 2,2 0 0 1 144,122 H 120 A 2,2 0 0 1 118,120 V 112 A 2,2 0 0 1 120,110 Z"
           sodipodi:type="inkscape:offset"
           inkscape:radius="-2"
           inkscape:original="M 112,128 H 152 V 88 H 112 Z M 120,120 V 112 H 144 V 120 Z M 120,104 V 96 H 144 V 104 Z"
           style="fill:#daebcf;fill-opacity:1;fill-rule:evenodd;stroke:#daebcf;stroke-width:4;stroke-linecap:round;stroke-linejoin:round;stroke-opacity:1" />
        <path
           id="row-2-column-0"
           d="M 50,138 V 168 A 2,2 0 0 1 48,170 H 18 V 174 H 54 V 138 Z"
           sodipodi:type="inkscape:offset"
           inkscape:radius="-2"
           inkscape:original="M 16,176 H 56 V 136 H 48 V 168 H 16 Z"
           style="fill:#daebcf;fill-opacity:1;fill-rule:evenodd;stroke:#daebcf;stroke-width:4;stroke-linecap:round;stroke-linejoin:round;stroke-opacity:1" />
        <path
           id="row-2-column-1"
           d="M 66,174 H 70 V 173.66 C 70,173.13 70.21,172.62 70.59,172.24 L 82.59,160.24 C 83.37,159.46 84.63,159.46 85.41,160.24 L 99.17,174 H 102 V 171.17 L 88.24,157.41 C 87.46,156.63 87.46,155.37 88.24,154.59 L 102,140.83 V 138 H 99.17 L 73.41,163.76 C 72.15,165.02 70,164.13 70,162.34 V 138 H 66 Z"
           sodipodi:type="inkscape:offset"
           inkscape:radius="-2"
           inkscape:original="M 64,176 H 72 V 173.6568542494923806 L 84,161.6568542494923806 98.3431457505076194,176 H 104 V 170.3431457505076194 L 89.6568542494923806,156 104,141.6568542494923806 V 136 H 98.3431457505076194 L 72,162.3431457505076194 V 136 H 64 Z"
           style="fill:#daebcf;fill-opacity:1;fill-rule:evenodd;stroke:#daebcf;stroke-width:4;stroke-linecap:round;stroke-linejoin:round;stroke-opacity:1" />
        <path
           id="row-2-column-2"
           d="M 114,138 V 174 H 150 V 170 H 120 A 2,2 0 0 1 118,168 V 138 Z"
           sodipodi:type="inkscape:offset"
           inkscape:radius="-2"
           inkscape:original="M 112,176 H 152 V 168 H 120 V 136 H 112 Z"
           style="fill:#daebcf;fill-opacity:1;fill-rule:evenodd;stroke:#daebcf;stroke-width:4;stroke-linecap:round;stroke-linejoin:round;stroke-opacity:1" />
        <path
           id="row-1-column-3-subcolumn-0"
           d="M 161,89 V 127 H 163 V 89 Z"
           sodipodi:type="inkscape:offset"
           inkscape:radius="-1"
           inkscape:original="M 160,128 H 164 V 88 H 160 Z"
           style="fill:#91c270;fill-opacity:1;fill-rule:evenodd;stroke:#91c270;stroke-width:2;stroke-linecap:round;stroke-linejoin:round;stroke-opacity:1" />
        <path
           id="row-1-column-3-subcolumn-1-subrow-0"
           d="M 173,89 V 103 H 199 V 89 Z M 176,91 H 196 A 1,1 0 0 1 197,92 V 100 A 1,1 0 0 1 196,101 H 176 A 1,1 0 0 1 175,100 V 92 A 1,1 0 0 1 176,91 Z"
           sodipodi:type="inkscape:offset"
           inkscape:radius="-1"
           inkscape:original="M 172,104 H 200 V 88 H 172 Z M 176,100 V 92 H 196 V 100 Z"
           style="fill:#91c270;fill-opacity:1;fill-rule:evenodd;stroke:#91c270;stroke-width:2;stroke-linecap:round;stroke-linejoin:round;stroke-opacity:1" />
        <path
           id="row-1-column-3-subcolumn-1-subrow-1"
           d="M 197,113 V 124 A 1,1 0 0 1 196,125 H 173 V 127 H 199 V 113 Z"
           sodipodi:type="inkscape:offset"
           inkscape:radius="-1"
           inkscape:original="M 172,128 H 200 V 112 H 196 V 124 H 172 Z"
           style="fill:#91c270;fill-opacity:1;fill-rule:evenodd;stroke:#91c270;stroke-width:2;stroke-linecap:round;stroke-linejoin:round;stroke-opacity:1" />
        <path
           id="row-2-column-3-subcolumn-0"
           d="M 161,137 V 175 H 163 V 137 Z"
           sodipodi:type="inkscape:offset"
           inkscape:radius="-1"
           inkscape:original="M 160,176 H 164 V 136 H 160 Z"
           style="fill:#91c270;fill-opacity:1;fill-rule:evenodd;stroke:#91c270;stroke-width:2;stroke-linecap:round;stroke-linejoin:round;stroke-opacity:1" />
        <path
           id="row-2-column-3-subcolumn-1-subrow-0"
           d="M 173,137 V 151 H 199 V 149 H 188 A 1,1 0 0 1 187,148 V 137 Z M 176,139 H 184 A 1,1 0 0 1 185,140 V 148 A 1,1 0 0 1 184,149 H 176 A 1,1 0 0 1 175,148 V 140 A 1,1 0 0 1 176,139 Z"
           sodipodi:type="inkscape:offset"
           inkscape:radius="-1"
           inkscape:original="M 172,152 H 200 V 148 H 188 V 136 H 172 Z M 176,148 V 140 H 184 V 148 Z"
           style="fill:#91c270;fill-opacity:1;fill-rule:evenodd;stroke:#91c270;stroke-width:2;stroke-linecap:round;stroke-linejoin:round;stroke-opacity:1" />
        <path
           id="row-2-column-3-subcolumn-1-subrow-1"
           d="M 173,161 V 175 H 187 V 164 A 1,1 0 0 1 188,163 H 199 V 161 Z M 176,163 H 184 A 1,1 0 0 1 185,164 V 172 A 1,1 0 0 1 184,173 H 176 A 1,1 0 0 1 175,172 V 164 A 1,1 0 0 1 176,163 Z"
           sodipodi:type="inkscape:offset"
           inkscape:radius="-1"
           inkscape:original="M 172,176 H 188 V 164 H 200 V 160 H 172 Z M 176,172 V 164 H 184 V 172 Z"
           style="fill:#91c270;fill-opacity:1;fill-rule:evenodd;stroke:#91c270;stroke-width:2;stroke-linecap:round;stroke-linejoin:round;stroke-opacity:1" />
      </g>
    </g>
  </g>
</svg>
